<?xml version="1.0" encoding="utf-8"?>
<!-- Generator: Adobe Illustrator 15.0.0, SVG Export Plug-In  -->
<!DOCTYPE svg PUBLIC "-//W3C//DTD SVG 1.1//EN" "http://www.w3.org/Graphics/SVG/1.1/DTD/svg11.dtd" [
	<!ENTITY ns_flows "http://ns.adobe.com/Flows/1.0/">
]>
<svg version="1.1"
	 xmlns="http://www.w3.org/2000/svg" xmlns:xlink="http://www.w3.org/1999/xlink" xmlns:a="http://ns.adobe.com/AdobeSVGViewerExtensions/3.0/"
	 x="0px" y="0px" width="208px" height="70px" viewBox="-2.998 0.136 208 70"
	 overflow="visible" enable-background="new -2.998 0.136 208 70" xml:space="preserve">
<defs>
</defs>
<g>
	<defs>
		<rect id="SVGID_28_" width="201.321" height="63.782"/>
	</defs>
	<clipPath id="SVGID_29_">
		<use xlink:href="#SVGID_28_"  overflow="visible"/>
	</clipPath>
	<path clip-path="url(#SVGID_29_)" fill="#231F20" d="M98.671,15.64c-1.405,0.687-2.798,1.031-4.188,1.031
		c-2.371,0-4.296-0.748-5.785-2.248c-1.489-1.493-2.233-3.422-2.233-5.79c0-2.348,0.693-4.283,2.074-5.803
		c1.381-1.518,3.241-2.281,5.574-2.281c1.435,0,2.938,0.355,4.512,1.056l-0.94,2.337c-1.357-0.599-2.565-0.894-3.617-0.894
		c-1.436,0-2.565,0.542-3.391,1.624c-0.762,0.978-1.142,2.207-1.142,3.688c0,1.739,0.439,3.126,1.325,4.167
		c0.951,1.099,2.275,1.647,3.987,1.647c1.039,0,2.069-0.245,3.091-0.734"/>
</g>
<g>
	<defs>
		<rect id="SVGID_27_" width="201.321" height="63.782"/>
	</defs>
	<clipPath id="SVGID_30_">
		<use xlink:href="#SVGID_27_"  overflow="visible"/>
	</clipPath>
	<path clip-path="url(#SVGID_30_)" fill="#231F20" d="M109.343,15.802c-1.956,0.594-3.581,0.89-4.88,0.89
		c-1.339,0-2.472-0.243-3.388-0.73c-1.157-0.628-1.738-1.544-1.738-2.749c0-1.328,0.613-2.301,1.831-2.909
		c0.488-0.244,1.633-0.564,3.437-0.962c1.218-0.276,1.829-0.661,1.829-1.167c0-0.7-0.641-1.056-1.925-1.056
		c-1.049,0-2.111,0.23-3.183,0.69l-0.939-2.086c1.438-0.655,2.941-0.984,4.515-0.984c1.297,0,2.319,0.29,3.065,0.873
		c0.809,0.638,1.217,1.595,1.217,2.863v5.885C109.183,14.65,109.234,15.13,109.343,15.802 M106.482,14.083
		c-0.036-0.199-0.049-0.344-0.049-0.435v-2.817c-0.23,0.232-0.717,0.429-1.467,0.597c-0.928,0.215-1.517,0.371-1.76,0.479
		c-0.567,0.262-0.848,0.626-0.848,1.101c0,0.93,0.708,1.392,2.128,1.392C105.145,14.4,105.808,14.296,106.482,14.083 M106.822,1.26
		c0,0.336-0.146,0.603-0.434,0.804l-2.794,1.877l-0.985-1.146l2.223-2.452C105.042,0.114,105.295,0,105.588,0
		c0.319,0,0.605,0.131,0.856,0.391C106.697,0.65,106.822,0.94,106.822,1.26"/>
</g>
<g>
	<defs>
		<rect id="SVGID_26_" width="201.321" height="63.782"/>
	</defs>
	<clipPath id="SVGID_31_">
		<use xlink:href="#SVGID_26_"  overflow="visible"/>
	</clipPath>
	<path clip-path="url(#SVGID_31_)" fill="#231F20" d="M127.27,16.442h-2.749V9.25c0-1.403-0.661-2.106-1.988-2.106
		c-0.613,0-1.299,0.189-2.064,0.571c0.06,0.311,0.09,0.76,0.09,1.352v7.375h-2.746V9.23c0-1.39-0.655-2.086-1.969-2.086
		c-0.672,0-1.349,0.161-2.036,0.481c0.03,0.232,0.044,0.4,0.044,0.507v8.31h-2.748v-9.07c0-0.301-0.043-0.799-0.14-1.488
		c2.003-0.764,3.723-1.145,5.155-1.145c1.586,0,2.724,0.355,3.411,1.053c1.265-0.698,2.541-1.053,3.824-1.053
		c1.237,0,2.2,0.351,2.884,1.042c0.688,0.696,1.033,1.671,1.033,2.92"/>
</g>
<g>
	<defs>
		<rect id="SVGID_25_" width="201.321" height="63.782"/>
	</defs>
	<clipPath id="SVGID_32_">
		<use xlink:href="#SVGID_25_"  overflow="visible"/>
	</clipPath>
	<path clip-path="url(#SVGID_32_)" fill="#231F20" d="M138.446,15.802c-1.955,0.594-3.581,0.89-4.881,0.89
		c-1.342,0-2.471-0.242-3.386-0.73c-1.159-0.628-1.742-1.544-1.742-2.749c0-1.328,0.611-2.3,1.831-2.909
		c0.489-0.244,1.635-0.564,3.437-0.962c1.221-0.275,1.832-0.662,1.832-1.167c0-0.7-0.641-1.056-1.922-1.056
		c-1.054,0-2.115,0.231-3.184,0.69l-0.941-2.086c1.439-0.655,2.942-0.983,4.514-0.983c1.297,0,2.32,0.29,3.066,0.873
		c0.807,0.638,1.215,1.595,1.215,2.862v5.886C138.284,14.65,138.337,15.13,138.446,15.802 M135.583,14.083
		c-0.033-0.199-0.047-0.344-0.047-0.435v-2.816c-0.229,0.231-0.714,0.428-1.467,0.597c-0.929,0.216-1.515,0.371-1.76,0.479
		c-0.567,0.262-0.85,0.626-0.85,1.102c0,0.93,0.708,1.392,2.13,1.392C134.249,14.4,134.909,14.295,135.583,14.083"/>
</g>
<g>
	<defs>
		<rect id="SVGID_24_" width="201.321" height="63.782"/>
	</defs>
	<clipPath id="SVGID_33_">
		<use xlink:href="#SVGID_24_"  overflow="visible"/>
	</clipPath>
	<path clip-path="url(#SVGID_33_)" fill="#231F20" d="M147.396,4.992l-0.823,2.358c-0.49-0.155-0.992-0.231-1.512-0.231
		c-0.731,0-1.418,0.101-2.061,0.301c0.016,0.107,0.021,0.183,0.021,0.227v8.795h-2.746V7.714c0-0.349-0.067-0.918-0.207-1.717
		c2.016-0.837,3.756-1.258,5.223-1.258C146.057,4.739,146.754,4.826,147.396,4.992"/>
</g>
<g>
	<defs>
		<rect id="SVGID_23_" width="201.321" height="63.782"/>
	</defs>
	<clipPath id="SVGID_34_">
		<use xlink:href="#SVGID_23_"  overflow="visible"/>
	</clipPath>
	<path clip-path="url(#SVGID_34_)" fill="#231F20" d="M156.488,15.802c-1.954,0.594-3.582,0.89-4.875,0.89
		c-1.346,0-2.478-0.242-3.392-0.73c-1.159-0.628-1.737-1.544-1.737-2.749c0-1.328,0.605-2.3,1.828-2.909
		c0.49-0.244,1.635-0.564,3.438-0.962c1.221-0.275,1.828-0.662,1.828-1.167c0-0.7-0.639-1.056-1.92-1.056
		c-1.057,0-2.119,0.231-3.186,0.69l-0.936-2.086c1.43-0.655,2.936-0.983,4.508-0.983c1.295,0,2.32,0.29,3.07,0.873
		c0.807,0.638,1.214,1.595,1.214,2.862v5.886C156.33,14.65,156.383,15.13,156.488,15.802 M153.623,14.083
		c-0.031-0.199-0.045-0.344-0.045-0.435v-2.816c-0.227,0.231-0.717,0.428-1.46,0.597c-0.937,0.216-1.524,0.371-1.769,0.479
		c-0.563,0.262-0.85,0.626-0.85,1.102c0,0.93,0.713,1.392,2.135,1.392C152.289,14.4,152.951,14.295,153.623,14.083"/>
</g>
<g>
	<defs>
		<rect id="SVGID_22_" width="201.321" height="63.782"/>
	</defs>
	<clipPath id="SVGID_35_">
		<use xlink:href="#SVGID_22_"  overflow="visible"/>
	</clipPath>
	<path clip-path="url(#SVGID_35_)" fill="#231F20" d="M97.043,36.79c-1.557,0.565-3.036,0.847-4.44,0.847
		c-1.818,0-3.314-0.575-4.486-1.727c-1.176-1.152-1.765-2.632-1.765-4.431c0-1.602,0.442-2.946,1.328-4.03
		c0.961-1.176,2.268-1.766,3.916-1.766c0.93,0,1.788,0.207,2.563,0.622v-5.726h2.751v14.679
		C96.909,35.563,96.955,36.073,97.043,36.79 M94.205,35.052c-0.031-0.215-0.046-0.367-0.046-0.459v-5.979
		c-0.469-0.363-1.1-0.549-1.877-0.549c-0.973,0-1.717,0.353-2.22,1.051c-0.428,0.629-0.643,1.462-0.643,2.499
		c0,1.084,0.259,1.948,0.78,2.589c0.564,0.7,1.372,1.053,2.43,1.053C93.312,35.257,93.839,35.189,94.205,35.052"/>
</g>
<g>
	<defs>
		<rect id="SVGID_21_" width="201.321" height="63.782"/>
	</defs>
	<clipPath id="SVGID_36_">
		<use xlink:href="#SVGID_21_"  overflow="visible"/>
	</clipPath>
	<path clip-path="url(#SVGID_36_)" fill="#231F20" d="M108.68,31.159c0,0.229-0.056,0.731-0.163,1.51h-7.399
		c0.185,1.727,1.207,2.588,3.072,2.588c1.053,0,2.024-0.196,2.906-0.596l0.87,2.128c-1.326,0.564-2.639,0.847-3.935,0.847
		c-1.759,0-3.175-0.544-4.25-1.633c-1.075-1.096-1.615-2.533-1.615-4.32c0-1.741,0.452-3.151,1.352-4.236
		c0.963-1.175,2.283-1.765,3.961-1.765c1.622,0,2.902,0.514,3.849,1.535C108.229,28.212,108.68,29.526,108.68,31.159
		 M105.836,30.517c-0.014-0.747-0.215-1.356-0.594-1.832c-0.428-0.489-1.009-0.731-1.739-0.731c-0.703,0-1.268,0.246-1.696,0.741
		c-0.428,0.497-0.656,1.104-0.69,1.821H105.836z"/>
</g>
<g>
	<defs>
		<rect id="SVGID_20_" width="201.321" height="63.782"/>
	</defs>
	<clipPath id="SVGID_37_">
		<use xlink:href="#SVGID_20_"  overflow="visible"/>
	</clipPath>
	<path clip-path="url(#SVGID_37_)" fill="#231F20" d="M126.284,36.585c-1.404,0.684-2.8,1.03-4.191,1.03
		c-2.365,0-4.292-0.748-5.78-2.246c-1.488-1.492-2.232-3.426-2.232-5.792c0-2.352,0.69-4.286,2.068-5.807
		c1.388-1.515,3.243-2.277,5.582-2.277c1.432,0,2.934,0.354,4.507,1.056l-0.936,2.336c-1.36-0.595-2.566-0.896-3.619-0.896
		c-1.434,0-2.565,0.545-3.389,1.627c-0.761,0.979-1.145,2.208-1.145,3.688c0,1.738,0.443,3.128,1.332,4.167
		c0.943,1.097,2.271,1.649,3.979,1.649c1.042,0,2.069-0.246,3.095-0.733"/>
</g>
<g>
	<defs>
		<rect id="SVGID_19_" width="201.321" height="63.782"/>
	</defs>
	<clipPath id="SVGID_38_">
		<use xlink:href="#SVGID_19_"  overflow="visible"/>
	</clipPath>
	<path clip-path="url(#SVGID_38_)" fill="#231F20" d="M137.642,31.661c0,1.743-0.527,3.172-1.577,4.293
		c-1.055,1.123-2.445,1.683-4.172,1.683c-1.721,0-3.12-0.572-4.188-1.717c-1.038-1.098-1.557-2.517-1.557-4.259
		c0-1.737,0.528-3.17,1.581-4.291c1.055-1.122,2.443-1.686,4.165-1.686c1.727,0,3.117,0.564,4.172,1.686
		C137.115,28.49,137.642,29.923,137.642,31.661 M134.597,31.686c0-0.991-0.199-1.808-0.595-2.451
		c-0.474-0.778-1.175-1.169-2.109-1.169c-0.928,0-1.629,0.385-2.106,1.147c-0.395,0.64-0.595,1.467-0.595,2.473
		c0,1.003,0.199,1.823,0.595,2.45c0.476,0.763,1.178,1.146,2.106,1.146c0.934,0,1.635-0.383,2.109-1.146
		C134.398,33.509,134.597,32.689,134.597,31.686"/>
</g>
<g>
	<defs>
		<rect id="SVGID_18_" width="201.321" height="63.782"/>
	</defs>
	<clipPath id="SVGID_39_">
		<use xlink:href="#SVGID_18_"  overflow="visible"/>
	</clipPath>
	<path clip-path="url(#SVGID_39_)" fill="#231F20" d="M155.071,37.387h-2.75v-7.193c0-1.402-0.661-2.105-1.994-2.105
		c-0.606,0-1.296,0.191-2.06,0.572c0.061,0.308,0.092,0.758,0.092,1.351v7.375h-2.746v-7.213c0-1.391-0.654-2.085-1.971-2.085
		c-0.67,0-1.35,0.164-2.037,0.483c0.031,0.229,0.043,0.397,0.043,0.502v8.313h-2.745V28.32c0-0.306-0.046-0.806-0.142-1.49
		c2.003-0.762,3.719-1.146,5.154-1.146c1.589,0,2.727,0.353,3.412,1.056c1.267-0.704,2.541-1.056,3.824-1.056
		c1.236,0,2.199,0.349,2.886,1.043c0.688,0.695,1.033,1.669,1.033,2.917"/>
</g>
<g>
	<defs>
		<rect id="SVGID_17_" width="201.321" height="63.782"/>
	</defs>
	<clipPath id="SVGID_40_">
		<use xlink:href="#SVGID_17_"  overflow="visible"/>
	</clipPath>
	<path clip-path="url(#SVGID_40_)" fill="#231F20" d="M166.7,31.159c0,0.229-0.051,0.731-0.159,1.51h-7.399
		c0.184,1.727,1.208,2.588,3.069,2.588c1.056,0,2.021-0.196,2.909-0.596l0.872,2.128c-1.327,0.564-2.642,0.847-3.94,0.847
		c-1.756,0-3.173-0.544-4.247-1.633c-1.077-1.096-1.615-2.533-1.615-4.32c0-1.741,0.452-3.151,1.35-4.235
		c0.962-1.176,2.282-1.766,3.961-1.766c1.619,0,2.9,0.514,3.847,1.535C166.252,28.212,166.7,29.526,166.7,31.159 M163.861,30.517
		c-0.014-0.747-0.217-1.356-0.595-1.832c-0.429-0.489-1.01-0.731-1.743-0.731c-0.7,0-1.264,0.246-1.691,0.741
		c-0.431,0.497-0.657,1.104-0.69,1.821H163.861z"/>
</g>
<g>
	<defs>
		<rect id="SVGID_16_" width="201.321" height="63.782"/>
	</defs>
	<clipPath id="SVGID_41_">
		<use xlink:href="#SVGID_16_"  overflow="visible"/>
	</clipPath>
	<path clip-path="url(#SVGID_41_)" fill="#231F20" d="M175.218,25.939l-0.823,2.356c-0.489-0.15-0.992-0.23-1.511-0.23
		c-0.733,0-1.42,0.101-2.064,0.297c0.02,0.112,0.026,0.185,0.026,0.229v8.795h-2.748v-8.726c0-0.35-0.071-0.923-0.208-1.717
		c2.016-0.839,3.756-1.26,5.223-1.26C173.875,25.684,174.576,25.771,175.218,25.939"/>
</g>
<g>
	<defs>
		<rect id="SVGID_15_" width="201.321" height="63.782"/>
	</defs>
	<clipPath id="SVGID_42_">
		<use xlink:href="#SVGID_15_"  overflow="visible"/>
	</clipPath>
	<path clip-path="url(#SVGID_42_)" fill="#231F20" d="M184.059,36.837c-1.19,0.534-2.368,0.8-3.527,0.8
		c-1.786,0-3.271-0.549-4.454-1.651c-1.185-1.097-1.775-2.54-1.775-4.326c0-1.767,0.55-3.208,1.661-4.315
		c1.104-1.108,2.545-1.662,4.316-1.662c1.281,0,2.541,0.267,3.779,0.804l-0.827,2.221c-1.087-0.428-2.014-0.643-2.793-0.643
		c-0.979,0-1.756,0.341-2.337,1.027c-0.578,0.673-0.868,1.508-0.868,2.499c0,1.041,0.315,1.912,0.95,2.613
		c0.632,0.7,1.468,1.053,2.507,1.053c0.686,0,1.543-0.189,2.563-0.572"/>
</g>
<g>
	<defs>
		<rect id="SVGID_14_" width="201.321" height="63.782"/>
	</defs>
	<clipPath id="SVGID_43_">
		<use xlink:href="#SVGID_14_"  overflow="visible"/>
	</clipPath>
	<path clip-path="url(#SVGID_43_)" fill="#231F20" d="M188.662,22.022c0,0.476-0.167,0.857-0.495,1.155
		c-0.327,0.297-0.729,0.451-1.203,0.451s-0.868-0.153-1.178-0.451c-0.314-0.298-0.47-0.679-0.47-1.155
		c0-0.457,0.155-0.845,0.47-1.157c0.309-0.314,0.703-0.47,1.178-0.47c0.456,0,0.856,0.156,1.19,0.47
		C188.487,21.178,188.662,21.566,188.662,22.022 M188.385,37.387h-2.748V25.939h2.748V37.387z"/>
</g>
<g>
	<defs>
		<rect id="SVGID_13_" width="201.321" height="63.782"/>
	</defs>
	<clipPath id="SVGID_44_">
		<use xlink:href="#SVGID_13_"  overflow="visible"/>
	</clipPath>
	<path clip-path="url(#SVGID_44_)" fill="#231F20" d="M201.32,31.661c0,1.743-0.526,3.172-1.578,4.293
		c-1.055,1.123-2.444,1.683-4.169,1.683c-1.724,0-3.12-0.572-4.191-1.717c-1.038-1.098-1.553-2.517-1.553-4.259
		c0-1.737,0.525-3.17,1.576-4.291c1.055-1.122,2.444-1.686,4.169-1.686c1.724,0,3.113,0.564,4.169,1.686
		C200.794,28.49,201.32,29.923,201.32,31.661 M198.274,31.686c0-0.991-0.196-1.808-0.594-2.451
		c-0.474-0.778-1.173-1.169-2.107-1.169c-0.927,0-1.633,0.385-2.106,1.147c-0.399,0.64-0.595,1.467-0.595,2.473
		c0,1.003,0.195,1.823,0.595,2.45c0.474,0.763,1.18,1.146,2.106,1.146c0.935,0,1.634-0.383,2.107-1.146
		C198.079,33.509,198.274,32.689,198.274,31.686"/>
</g>
<g>
	<defs>
		<rect id="SVGID_12_" width="201.321" height="63.782"/>
	</defs>
	<clipPath id="SVGID_45_">
		<use xlink:href="#SVGID_12_"  overflow="visible"/>
	</clipPath>
	<path clip-path="url(#SVGID_45_)" fill="#231F20" d="M97.043,57.737c-1.557,0.564-3.036,0.848-4.441,0.848
		c-1.817,0-3.313-0.577-4.486-1.733c-1.176-1.148-1.765-2.625-1.765-4.426c0-1.602,0.442-2.946,1.328-4.032
		c0.961-1.176,2.268-1.762,3.916-1.762c0.93,0,1.787,0.203,2.563,0.619v-5.725h2.751l-0.001,14.678
		C96.908,56.511,96.955,57.021,97.043,57.737 M94.205,55.998c-0.031-0.216-0.046-0.367-0.046-0.457v-5.978
		c-0.469-0.365-1.1-0.55-1.877-0.55c-0.973,0-1.717,0.351-2.22,1.052c-0.428,0.628-0.642,1.46-0.642,2.495
		c0,1.087,0.258,1.949,0.78,2.593c0.564,0.699,1.372,1.051,2.43,1.051C93.312,56.204,93.839,56.137,94.205,55.998"/>
</g>
<g>
	<defs>
		<rect id="SVGID_11_" width="201.321" height="63.782"/>
	</defs>
	<clipPath id="SVGID_46_">
		<use xlink:href="#SVGID_11_"  overflow="visible"/>
	</clipPath>
	<path clip-path="url(#SVGID_46_)" fill="#231F20" d="M108.68,52.107c0,0.226-0.056,0.729-0.163,1.507h-7.399
		c0.185,1.727,1.207,2.59,3.072,2.59c1.053,0,2.024-0.199,2.906-0.594l0.87,2.127c-1.326,0.565-2.639,0.847-3.935,0.847
		c-1.759,0-3.175-0.544-4.25-1.636c-1.076-1.092-1.615-2.532-1.615-4.316c0-1.742,0.452-3.152,1.352-4.237
		c0.963-1.177,2.283-1.761,3.961-1.761c1.622,0,2.902,0.51,3.849,1.531C108.229,49.157,108.68,50.472,108.68,52.107 M105.836,51.463
		c-0.014-0.746-0.215-1.359-0.594-1.833c-0.428-0.486-1.009-0.729-1.739-0.729c-0.703,0-1.268,0.248-1.696,0.742
		c-0.428,0.498-0.656,1.104-0.69,1.819H105.836z"/>
</g>
<g>
	<defs>
		<rect id="SVGID_10_" width="201.321" height="63.782"/>
	</defs>
	<clipPath id="SVGID_47_">
		<use xlink:href="#SVGID_10_"  overflow="visible"/>
	</clipPath>
	<path clip-path="url(#SVGID_47_)" fill="#231F20" d="M125.346,54.004c0,3.056-2.213,4.581-6.64,4.581
		c-1.206,0-2.519-0.135-3.938-0.411V42.878c1.588-0.305,2.918-0.458,3.983-0.458c4.016,0,6.023,1.47,6.023,4.415
		c0,0.739-0.219,1.406-0.652,2.016c-0.437,0.615-0.999,1.059-1.681,1.352v0.047c0.901,0.212,1.607,0.66,2.125,1.338
		C125.085,52.271,125.346,53.073,125.346,54.004 M121.841,46.931c0-0.824-0.304-1.396-0.915-1.719
		c-0.443-0.215-1.122-0.32-2.038-0.32c-0.384,0-0.802,0.037-1.258,0.115v4.029h1.4C120.905,49.036,121.841,48.337,121.841,46.931
		 M122.394,53.8c0-1.526-1.1-2.292-3.297-2.292h-1.468v4.422c0.458,0.075,0.888,0.111,1.283,0.111
		C121.233,56.041,122.394,55.296,122.394,53.8"/>
</g>
<g>
	<defs>
		<rect id="SVGID_9_" width="201.321" height="63.782"/>
	</defs>
	<clipPath id="SVGID_48_">
		<use xlink:href="#SVGID_9_"  overflow="visible"/>
	</clipPath>
	<path clip-path="url(#SVGID_48_)" fill="#231F20" d="M137.46,52.608c0,1.743-0.526,3.171-1.579,4.294
		c-1.056,1.12-2.444,1.683-4.169,1.683c-1.727,0-3.123-0.571-4.191-1.719c-1.037-1.097-1.553-2.514-1.553-4.257
		c0-1.741,0.524-3.171,1.576-4.292c1.052-1.125,2.441-1.684,4.168-1.684c1.726,0,3.114,0.56,4.169,1.684
		C136.934,49.438,137.46,50.867,137.46,52.608 M134.414,52.633c0-0.994-0.197-1.809-0.596-2.452
		c-0.473-0.776-1.173-1.167-2.106-1.167c-0.933,0-1.636,0.384-2.105,1.146c-0.398,0.642-0.598,1.467-0.598,2.474
		c0,1.004,0.2,1.824,0.598,2.45c0.469,0.765,1.172,1.145,2.105,1.145c0.935,0,1.633-0.38,2.106-1.145
		C134.217,54.456,134.414,53.636,134.414,52.633"/>
</g>
<g>
	<defs>
		<rect id="SVGID_8_" width="201.321" height="63.782"/>
	</defs>
	<clipPath id="SVGID_49_">
		<use xlink:href="#SVGID_8_"  overflow="visible"/>
	</clipPath>
	<path clip-path="url(#SVGID_49_)" fill="#231F20" d="M149.023,60.075c0,1.311-0.652,2.294-1.966,2.954
		c-1.026,0.505-2.27,0.754-3.74,0.754c-1.401,0-2.601-0.222-3.591-0.665c-1.315-0.609-1.97-1.525-1.97-2.745
		c0-1.48,0.867-2.48,2.609-2.999c-0.304-0.43-0.458-0.85-0.458-1.26c0-0.55,0.271-1.046,0.806-1.488
		c-1.484-0.81-2.222-2.041-2.222-3.69c0-1.328,0.479-2.387,1.439-3.181c0.904-0.75,2.025-1.121,3.369-1.121
		c0.289,0,0.643,0.039,1.066,0.125c0.419,0.084,0.674,0.126,0.765,0.126h3.894v2.105c-0.609,0.03-1.125-0.036-1.537-0.204
		l-0.045,0.047c0.443,0.761,0.668,1.465,0.668,2.103c0,1.072-0.322,1.973-0.963,2.701c-0.643,0.735-1.488,1.225-2.543,1.471
		c-0.14,0.029-0.638,0.084-1.51,0.158c-0.17,0.015-0.346,0.08-0.527,0.195c-0.186,0.113-0.273,0.246-0.273,0.4
		c0,0.383,0.575,0.664,1.738,0.847c1.617,0.242,2.701,0.484,3.25,0.732C148.443,57.959,149.023,58.835,149.023,60.075 M146.23,60.23
		c0-0.531-0.611-0.936-1.835-1.21c-0.851-0.139-1.7-0.278-2.542-0.411c-1.054,0.35-1.578,0.907-1.578,1.67
		c0,0.533,0.396,0.922,1.191,1.169c0.533,0.171,1.158,0.252,1.877,0.252C145.267,61.699,146.23,61.21,146.23,60.23 M145.471,50.985
		c0-0.644-0.197-1.14-0.604-1.492c-0.406-0.35-0.928-0.525-1.568-0.525c-0.644,0-1.166,0.176-1.568,0.525
		c-0.405,0.353-0.611,0.849-0.611,1.492c0,0.641,0.206,1.139,0.611,1.495c0.402,0.362,0.925,0.541,1.568,0.541
		c0.641,0,1.162-0.179,1.568-0.541C145.272,52.124,145.471,51.626,145.471,50.985"/>
</g>
<g>
	<defs>
		<rect id="SVGID_7_" width="201.321" height="63.782"/>
	</defs>
	<clipPath id="SVGID_50_">
		<use xlink:href="#SVGID_7_"  overflow="visible"/>
	</clipPath>
	<path clip-path="url(#SVGID_50_)" fill="#231F20" d="M160.814,52.608c0,1.743-0.525,3.171-1.576,4.294
		c-1.055,1.12-2.447,1.683-4.167,1.683c-1.731,0-3.126-0.571-4.191-1.719c-1.042-1.097-1.559-2.514-1.559-4.257
		c0-1.741,0.526-3.171,1.577-4.292c1.055-1.125,2.441-1.684,4.173-1.684c1.72,0,3.112,0.56,4.167,1.684
		C160.289,49.438,160.814,50.867,160.814,52.608 M157.771,52.633c0-0.994-0.199-1.809-0.598-2.452
		c-0.475-0.776-1.174-1.167-2.103-1.167c-0.935,0-1.638,0.384-2.111,1.146c-0.396,0.642-0.592,1.467-0.592,2.474
		c0,1.004,0.196,1.824,0.592,2.45c0.474,0.765,1.177,1.145,2.111,1.145c0.929,0,1.628-0.38,2.103-1.145
		C157.572,54.456,157.771,53.636,157.771,52.633"/>
</g>
<g>
	<defs>
		<rect id="SVGID_6_" width="201.321" height="63.782"/>
	</defs>
	<clipPath id="SVGID_51_">
		<use xlink:href="#SVGID_6_"  overflow="visible"/>
	</clipPath>
	<path clip-path="url(#SVGID_51_)" fill="#231F20" d="M169.172,58.104c-1.249,0.426-2.271,0.639-3.068,0.639
		c-2.351,0-3.524-1.058-3.524-3.18v-6.32l-1.306-0.069v-2.172l1.306-0.07v-3.182h2.746v3.137h3.208v2.381h-3.208v6.091
		c0,0.655,0.352,0.984,1.051,0.984c0.479,0,1.155-0.151,2.04-0.46"/>
</g>
<g>
	<defs>
		<rect id="SVGID_5_" width="201.321" height="63.782"/>
	</defs>
	<clipPath id="SVGID_52_">
		<use xlink:href="#SVGID_5_"  overflow="visible"/>
	</clipPath>
	<path clip-path="url(#SVGID_52_)" fill="#231F20" d="M179.225,57.688c-1.95,0.598-3.581,0.896-4.877,0.896
		c-1.342,0-2.474-0.245-3.386-0.732c-1.165-0.625-1.744-1.542-1.744-2.746c0-1.328,0.611-2.298,1.834-2.908
		c0.49-0.245,1.631-0.566,3.435-0.96c1.22-0.278,1.832-0.668,1.832-1.172c0-0.701-0.642-1.052-1.924-1.052
		c-1.054,0-2.113,0.228-3.183,0.687l-0.94-2.082c1.438-0.656,2.939-0.984,4.51-0.984c1.302,0,2.323,0.291,3.069,0.868
		c0.808,0.644,1.215,1.599,1.215,2.86v5.888C179.064,56.542,179.121,57.021,179.225,57.688 M176.364,55.976
		c-0.032-0.199-0.046-0.345-0.046-0.435v-2.814c-0.23,0.223-0.718,0.423-1.469,0.589c-0.933,0.215-1.519,0.377-1.762,0.484
		c-0.567,0.26-0.848,0.624-0.848,1.1c0,0.928,0.71,1.396,2.128,1.396C175.026,56.295,175.688,56.19,176.364,55.976 M176.708,43.153
		c0,0.336-0.147,0.604-0.437,0.799l-2.793,1.878l-0.985-1.144l2.221-2.45c0.214-0.231,0.464-0.344,0.755-0.344
		c0.323,0,0.608,0.13,0.858,0.388C176.581,42.54,176.708,42.829,176.708,43.153"/>
</g>
<g>
	<defs>
		<rect id="SVGID_4_" width="201.321" height="63.782"/>
	</defs>
	<clipPath id="SVGID_53_">
		<use xlink:href="#SVGID_4_"  overflow="visible"/>
	</clipPath>
	<path clip-path="url(#SVGID_53_)" fill="#C3002F" d="M35.537,16.03c-1.116,3.762-6.44,6.611-12.848,6.611
		c-7.22,0-13.07-3.615-13.07-8.077c0-4.461,5.85-8.078,13.07-8.078c6.408,0,11.732,2.853,12.848,6.612
		c0.46-2.746,2.205-5.259,4.855-7.302c-4.158-3.204-10.544-5.255-17.704-5.255C10.154,0.542,0,6.82,0,14.564
		c0,7.744,10.154,14.023,22.688,14.023c7.16,0,13.545-2.052,17.704-5.261C37.741,21.289,35.997,18.775,35.537,16.03"/>
</g>
<g>
	<defs>
		<rect id="SVGID_3_" width="201.321" height="63.782"/>
	</defs>
	<clipPath id="SVGID_54_">
		<use xlink:href="#SVGID_3_"  overflow="visible"/>
	</clipPath>
	<path clip-path="url(#SVGID_54_)" fill="#C3002F" d="M35.537,46.099c-1.116,3.762-6.44,6.616-12.848,6.616
		c-7.22,0-13.07-3.618-13.07-8.077c0-4.464,5.85-8.081,13.07-8.081c6.408,0,11.732,2.858,12.848,6.614
		c0.46-2.746,2.205-5.259,4.855-7.301c-4.158-3.205-10.544-5.258-17.704-5.258C10.154,30.611,0,36.893,0,44.638
		c0,7.744,10.154,14.02,22.688,14.02c7.16,0,13.545-2.051,17.704-5.256C37.741,51.358,35.997,48.845,35.537,46.099"/>
</g>
<g>
	<defs>
		<rect id="SVGID_2_" width="201.321" height="63.782"/>
	</defs>
	<clipPath id="SVGID_55_">
		<use xlink:href="#SVGID_2_"  overflow="visible"/>
	</clipPath>
	<path clip-path="url(#SVGID_55_)" fill="#C3002F" d="M46.135,16.03c1.115,3.762,6.44,6.611,12.851,6.611
		c7.215,0,13.064-3.615,13.064-8.077c0-4.461-5.849-8.078-13.064-8.078c-6.41,0-11.735,2.853-12.851,6.612
		c-0.46-2.746-2.205-5.259-4.855-7.302c4.153-3.204,10.542-5.255,17.706-5.255c12.525,0,22.686,6.278,22.686,14.023
		c0,7.744-10.16,14.023-22.686,14.023c-7.164,0-13.553-2.053-17.706-5.261C43.93,21.289,45.674,18.775,46.135,16.03"/>
</g>
<g>
	<defs>
		<rect id="SVGID_1_" width="201.321" height="63.782"/>
	</defs>
	<clipPath id="SVGID_56_">
		<use xlink:href="#SVGID_1_"  overflow="visible"/>
	</clipPath>
	<path clip-path="url(#SVGID_56_)" fill="#C3002F" d="M46.135,46.099c1.115,3.762,6.44,6.616,12.851,6.616
		c7.215,0,13.064-3.618,13.064-8.077c0-4.464-5.849-8.081-13.064-8.081c-6.41,0-11.735,2.858-12.851,6.614
		c-0.46-2.746-2.205-5.259-4.855-7.301c4.153-3.205,10.542-5.258,17.706-5.258c12.525,0,22.686,6.281,22.686,14.024
		c0,7.744-10.16,14.021-22.686,14.021c-7.164,0-13.553-2.051-17.706-5.256C43.93,51.358,45.674,48.845,46.135,46.099"/>
</g>
</svg>
